<svg width="128" height="100" viewBox="0 0 128 100" fill="none" xmlns="http://www.w3.org/2000/svg">
<g clip-path="url(#clip0)">
<path d="M89.4557 19.5023L76.4451 32.2085L98.1016 28.4812L89.4557 19.5023Z" fill="#F2F2F2"/>
<path d="M99.4409 29.3688L75.2828 33.5267L68.791 39.8666L103.755 33.849L99.4409 29.3688Z" fill="#F2F2F2"/>
<path d="M68.0864 41.018L47.5102 61.1126L68.3567 82.7622L110.992 41.1248L104.804 34.6985L68.0864 41.018Z" fill="#F2F2F2"/>
<path d="M78.6461 88.0001C105.577 83.365 127.222 78.5213 126.991 77.1812C126.76 75.8412 104.742 78.5124 77.8109 83.1474C50.8801 87.7825 29.2354 92.6263 29.4661 93.9663C29.6967 95.3063 51.7153 92.6352 78.6461 88.0001Z" fill="#F2F2F2"/>
<path d="M26.7792 91.6807C34.526 90.3474 40.6657 88.4518 40.4927 87.4468C40.3198 86.4418 33.8996 86.7079 26.1528 88.0412C18.4061 89.3745 12.2663 91.2701 12.4393 92.2751C12.6123 93.2801 19.0325 93.014 26.7792 91.6807Z" fill="#F2F2F2"/>
<path d="M45.9358 56.274C46.853 56.1161 47.5219 55.5544 47.4298 55.0193C47.3377 54.4843 46.5195 54.1785 45.6023 54.3364C44.6851 54.4942 44.0162 55.0559 44.1083 55.591C44.2004 56.1261 45.0186 56.4319 45.9358 56.274Z" fill="#3F3D56"/>
<path d="M90.6287 54.8844L53.3046 61.3082L53.6495 57.8211L53.9475 54.8045L54.454 49.6843L85.7467 44.2985L87.8974 48.9613L89.3694 52.1538L90.6287 54.8844Z" fill="#3F3D56"/>
<path opacity="0.1" d="M89.3695 52.1538L53.7298 58.2878L53.6495 57.8211L53.9475 54.8044L87.8975 48.9613L89.3695 52.1538Z" fill="black"/>
<path d="M48.1416 54.5795L43.2904 55.4144L43.9422 59.2016L48.7935 58.3667L48.1416 54.5795Z" fill="#009688"/>
<path d="M101.998 47.2145L40.1123 57.8657L45.8422 91.1578L107.728 80.5066L101.998 47.2145Z" fill="#3F3D56"/>
<path d="M104.151 59.721L42.2648 70.3723L43.6897 78.6513L105.576 68L104.151 59.721Z" fill="#009688"/>
<path d="M76.5806 84.6432C85.0529 83.185 90.73 75.0826 89.2607 66.5459C87.7914 58.0092 79.7322 52.2709 71.26 53.7291C62.7877 55.1872 57.1106 63.2897 58.5799 71.8264C60.0491 80.3631 68.1083 86.1013 76.5806 84.6432Z" fill="#2F2E41"/>
<path d="M76.3911 83.5423C84.26 82.188 89.5327 74.6626 88.1681 66.734C86.8035 58.8053 79.3183 53.4757 71.4495 54.83C63.5806 56.1843 58.3079 63.7097 59.6725 71.6384C61.0371 79.567 68.5223 84.8966 76.3911 83.5423Z" fill="#3F3D56"/>
<path d="M75.7999 80.1074C81.786 79.0771 85.7972 73.3523 84.7591 67.3207C83.721 61.2891 78.0267 57.2347 72.0406 58.265C66.0545 59.2952 62.0433 65.02 63.0814 71.0516C64.1195 77.0833 69.8138 81.1377 75.7999 80.1074Z" fill="#2F2E41"/>
<path opacity="0.2" d="M93.0467 52.2011C93.626 52.1014 94.0142 51.5474 93.9138 50.9637C93.8133 50.38 93.2622 49.9877 92.6829 50.0874C92.1036 50.1871 91.7155 50.7411 91.8159 51.3248C91.9164 51.9085 92.4675 52.3008 93.0467 52.2011Z" fill="#009688"/>
<path opacity="0.5" d="M96.1935 51.6595C96.7728 51.5598 97.161 51.0058 97.0605 50.4221C96.96 49.8384 96.409 49.446 95.8297 49.5457C95.2504 49.6454 94.8622 50.1994 94.9627 50.7831C95.0631 51.3668 95.6142 51.7592 96.1935 51.6595Z" fill="#009688"/>
<path d="M99.3403 51.1179C99.9196 51.0182 100.308 50.4642 100.207 49.8805C100.107 49.2968 99.5558 48.9045 98.9765 49.0042C98.3972 49.1039 98.0091 49.6579 98.1095 50.2416C98.21 50.8253 98.761 51.2176 99.3403 51.1179Z" fill="#009688"/>
<path d="M73.8643 47.1597L66.5219 48.4235L67.0979 51.7703L74.4403 50.5066L73.8643 47.1597Z" fill="#2F2E41"/>
<path d="M11.3063 47.6619L11.8376 46.9037C11.8376 46.9037 12.9848 43.7425 11.3793 44.2411C9.77388 44.7397 10.0216 46.1789 10.0216 46.1789L10.3065 47.834L11.3063 47.6619Z" fill="#9F616A"/>
<path d="M38.0037 50.254L38.6093 49.9275C38.6093 49.9275 39.8775 47.0419 40.2899 48.1564C40.7023 49.2709 39.9035 51.0384 39.9035 51.0384L38.1895 51.3334L38.0037 50.254Z" fill="#9F616A"/>
<path d="M42.5114 19.9455L13.3804 17.6971L11.2753 46.3034L40.4064 48.5518L42.5114 19.9455Z" fill="#3F3D56"/>
<path opacity="0.2" d="M40.1473 21.5506L15.1293 19.6197L13.8302 37.2734L38.8482 39.2043L40.1473 21.5506Z" fill="#009688"/>
<path d="M21.4108 45.5894C22.9978 45.3163 24.0985 44.0156 23.8693 42.6842C23.6402 41.3528 22.168 40.4949 20.581 40.768C18.9941 41.0412 17.8934 42.3419 18.1225 43.6733C18.3517 45.0046 19.8239 45.8625 21.4108 45.5894Z" fill="#2F2E41"/>
<path d="M19.9054 63.4454C19.9054 63.4454 19.342 66.5802 20.4158 74.101C21.4896 81.6218 22.0804 86.3361 23.1203 86.824C24.1602 87.3118 25.4923 86.9344 25.539 86.7782C25.5856 86.6219 24.3326 77.2056 24.3326 77.2056L24.9881 69.9058L27.8767 74.2988L29.301 82.5742C29.301 82.5742 31.1199 83.743 31.5273 82.2652C31.9348 80.7873 31.1619 73.7333 31.1619 73.7333C31.1619 73.7333 29.9039 61.7246 28.2993 60.5189C26.6946 59.3133 19.9054 63.4454 19.9054 63.4454Z" fill="#2F2E41"/>
<path d="M24.1201 86.6519C24.1201 86.6519 23.2107 86.0675 22.7289 87.1136C22.2472 88.1597 20.4514 90.5434 21.0133 90.8171C21.5751 91.0909 24.1709 90.7923 24.3947 90.3833C24.3947 90.3833 26.3048 89.0914 26.2676 88.8755C26.2305 88.6596 25.5361 86.3341 25.2628 86.4552C24.9895 86.5763 24.303 87.2872 24.1201 86.6519Z" fill="#2F2E41"/>
<path d="M30.2265 81.9704L31.6106 81.7322C31.6106 81.7322 31.3998 82.8058 31.7569 82.7443C32.1139 82.6829 35.8698 84.8519 34.6338 85.361C33.3978 85.8701 29.5326 85.2017 29.3155 84.7945C29.0983 84.3874 29.4067 82.3338 29.4067 82.3338L30.338 82.6181L30.2265 81.9704Z" fill="#2F2E41"/>
<path d="M19.7992 45.3111C19.7992 45.3111 20.0775 47.7823 19.4005 48.1211C18.7235 48.4599 22.107 50.1744 22.107 50.1744L23.7074 47.0835C23.7074 47.0835 22.6865 45.8514 22.7988 44.7948C22.9111 43.7382 19.7992 45.3111 19.7992 45.3111Z" fill="#9F616A"/>
<path opacity="0.1" d="M19.7992 45.3111C19.7992 45.3111 20.0775 47.7823 19.4005 48.1211C18.7235 48.4599 22.107 50.1744 22.107 50.1744L23.7074 47.0835C23.7074 47.0835 22.6865 45.8514 22.7988 44.7948C22.9111 43.7382 19.7992 45.3111 19.7992 45.3111Z" fill="black"/>
<path d="M21.5677 47.8963C21.5677 47.8963 18.9071 47.391 18.5872 47.6684C18.2672 47.9457 15.1707 50.0346 15.1488 50.3347C15.1269 50.6349 16.3452 54.7226 16.3452 54.7226C16.3452 54.7226 17.2641 54.9349 17.5956 56.4338C17.9271 57.9326 20.2641 59.9755 19.8938 61.6692C19.5236 63.363 18.9799 64.0493 20.2311 64.0562C21.4824 64.0632 26.9196 62.7569 27.1186 62.204C27.3176 61.6511 28.8363 60.6488 29.361 60.7067C29.8857 60.7645 27.7873 53.2719 27.7873 53.2719L28.03 52.1187L28.7772 47.9151C28.7772 47.9151 26.2136 45.8371 24.1796 46.4095C24.1796 46.4095 21.9438 47.0907 21.5677 47.8963Z" fill="#555AA8"/>
<path d="M16.2573 50.3662L15.1489 50.3347C15.1489 50.3347 14.2015 51.2387 13.8444 51.3002C13.4873 51.3616 13.5368 51.6495 13.5368 51.6495C13.5368 51.6495 11.8207 49.7961 11.6977 47.3723C11.6977 47.3723 9.91884 46.8634 9.9465 47.4514C9.97416 48.0394 10.5299 54.6861 11.8183 54.9089C13.1067 55.1318 17.2613 54.4908 17.2613 54.4908L16.2573 50.3662Z" fill="#555AA8"/>
<path d="M27.7526 47.9432L28.7524 47.7711L31.8531 49.9789C31.8531 49.9789 32.4711 49.7243 32.7597 50.1192C33.0482 50.5141 34.4642 50.1963 34.4642 50.1963L38.3113 49.9046C38.3113 49.9046 39.0961 51.4737 38.7885 51.823C38.481 52.1723 32.2086 53.3259 32.2086 53.3259C32.2086 53.3259 31.5877 53.1364 31.2802 53.4857C30.9726 53.835 28.0919 52.4785 27.7196 52.024C27.3472 51.5694 27.7526 47.9432 27.7526 47.9432Z" fill="#555AA8"/>
<path d="M21.64 46.1798C23.0994 45.9286 24.0773 44.5329 23.8242 43.0624C23.5711 41.5919 22.1829 40.6035 20.7235 40.8547C19.2641 41.1058 18.2862 42.5015 18.5393 43.972C18.7924 45.4425 20.1806 46.4309 21.64 46.1798Z" fill="#9F616A"/>
<path d="M19.2769 42.2506C19.2769 42.2506 18.6211 41.1443 19.2098 40.6444L19.4808 41.137C19.4808 41.137 20.958 39.8512 21.4266 40.005L21.1138 40.6215C21.1138 40.6215 23.0347 40.2909 23.2996 41.019L22.6256 41.1584C22.6256 41.1584 23.431 41.5122 23.5869 42.2824L22.1563 42.6224L22.9273 42.9117C22.9273 42.9117 20.3686 43.7272 19.5556 42.7887L19.2769 42.2506Z" fill="#2F2E41"/>
<path d="M18.3955 42.9224C18.3955 42.9224 19.2918 43.5493 20.2185 43.0042C21.1451 42.4592 19.9177 41.2566 19.9177 41.2566L19.1997 41.0375L18.3955 42.9224Z" fill="#2F2E41"/>
<path d="M30.1776 30.658L28.045 32.3013L29.682 34.4532L31.8145 32.81L30.1776 30.658Z" stroke="#F2F2F2" stroke-width="2" stroke-miterlimit="10"/>
<path d="M24.1752 30.7947L21.6516 29.8551L20.725 32.3944L23.2486 33.3341L24.1752 30.7947Z" fill="#009688"/>
<path d="M73.4008 44.5598C74.1323 44.4339 74.6224 43.7344 74.4956 42.9974C74.3687 42.2604 73.6729 41.7649 72.9415 41.8908C72.21 42.0167 71.7199 42.7162 71.8467 43.4533C71.9736 44.1903 72.6694 44.6857 73.4008 44.5598Z" stroke="#3F3D56" stroke-width="2" stroke-miterlimit="10"/>
<path d="M68.4303 40.169C69.1617 40.0431 69.6519 39.3436 69.525 38.6066C69.3982 37.8696 68.7024 37.3742 67.9709 37.5C67.2394 37.6259 66.7493 38.3255 66.8762 39.0625C67.003 39.7995 67.6988 40.2949 68.4303 40.169Z" stroke="#3F3D56" stroke-width="2" stroke-miterlimit="10"/>
<path d="M74.5046 35.1265C75.236 35.0006 75.7262 34.301 75.5993 33.564C75.4725 32.827 74.7767 32.3316 74.0452 32.4575C73.3138 32.5834 72.8237 33.2829 72.9505 34.0199C73.0774 34.7569 73.7731 35.2523 74.5046 35.1265Z" stroke="#3F3D56" stroke-width="2" stroke-miterlimit="10"/>
<path d="M27.1889 28.1559C27.9204 28.03 28.4105 27.3304 28.2837 26.5934C28.1568 25.8564 27.461 25.361 26.7296 25.4869C25.9981 25.6128 25.508 26.3123 25.6348 27.0493C25.7617 27.7863 26.4575 28.2817 27.1889 28.1559Z" stroke="#F2F2F2" stroke-width="2" stroke-miterlimit="10"/>
</g>
<defs>
<clipPath id="clip0">
<rect y="20" width="115.452" height="80.3545" transform="rotate(-9.76555 0 20)" fill="white"/>
</clipPath>
</defs>
</svg>
