<svg width="250" height="250" viewBox="0 0 250 250" fill="none" xmlns="http://www.w3.org/2000/svg">
<g clip-path="url(#clip0)">
<path d="M250 125C250.022 141.921 246.597 158.67 239.933 174.223L239.519 175.178C228.247 200.821 208.702 221.943 184.009 235.168C159.316 248.392 130.902 252.955 103.31 248.125C102.559 247.992 101.81 247.854 101.061 247.711C93.3296 246.212 85.7583 243.979 78.4504 241.043C77.2633 240.566 76.0848 240.072 74.9149 239.56C74.1161 239.212 73.3173 238.854 72.5259 238.484C50.8762 228.45 32.5463 212.436 19.6965 192.329C6.84671 172.223 0.0127095 148.862 0 125C0 55.9652 55.9652 0 125 0C194.035 0 250 55.9652 250 125Z" fill="#009688"/>
<path opacity="0.2" d="M103.31 248.125C102.559 247.992 101.81 247.854 101.061 247.711C100.573 233.543 98.8979 204.464 93.1842 174.009C90.0592 157.341 85.7212 140.255 79.7041 124.982C77.6428 119.697 75.2883 114.531 72.6516 109.508C66.5718 98.0252 59.1975 88.358 50.2552 81.8084L51.5718 80.0111C59.0089 85.4623 65.6928 93.1151 71.6235 102.97C73.4024 105.921 75.111 109.069 76.7493 112.415C78.5059 115.995 80.1812 119.795 81.7752 123.817C82.7922 126.376 83.7747 129.024 84.7227 131.76C88.8499 143.643 92.3583 157.2 95.2478 172.433C95.8876 175.799 96.4966 179.247 97.0747 182.777C101.553 210.133 102.903 235.425 103.31 248.125Z" fill="black"/>
<path opacity="0.2" d="M74.9149 239.56C74.1161 239.212 73.3173 238.854 72.5259 238.484C71.7529 230.089 70.3328 219.675 67.7367 209.789C66.5996 205.349 65.1399 200.999 63.3691 196.771C60.4068 189.837 56.5717 183.942 51.6124 180.307L52.929 178.513C58.1213 182.315 62.1265 188.325 65.2219 195.355C68.7093 203.277 71.0355 212.496 72.585 221.305C73.7352 227.848 74.4601 234.168 74.9149 239.56Z" fill="black"/>
<path opacity="0.2" d="M37.8187 81.7567C43.9642 81.7567 48.9461 76.7748 48.9461 70.6293C48.9461 64.4838 43.9642 59.5019 37.8187 59.5019C31.6732 59.5019 26.6913 64.4838 26.6913 70.6293C26.6913 76.7748 31.6732 81.7567 37.8187 81.7567Z" fill="black"/>
<path opacity="0.2" d="M41.4021 177.544C47.5477 177.544 52.5296 172.562 52.5296 166.417C52.5296 160.271 47.5477 155.289 41.4021 155.289C35.2566 155.289 30.2747 160.271 30.2747 166.417C30.2747 172.562 35.2566 177.544 41.4021 177.544Z" fill="black"/>
<path opacity="0.2" d="M81.995 89.32C79.6354 102.633 84.8443 114.687 84.8443 114.687C84.8443 114.687 93.879 105.157 96.2386 91.8447C98.5983 78.5321 93.3893 66.4777 93.3893 66.4777C93.3893 66.4777 84.3546 76.0074 81.995 89.32Z" fill="black"/>
<path opacity="0.2" d="M45.0139 120.921C57.7118 125.564 70.4713 122.585 70.4713 122.585C70.4713 122.585 62.6436 112.077 49.9458 107.434C37.248 102.791 24.4884 105.77 24.4884 105.77C24.4884 105.77 32.3161 116.278 45.0139 120.921Z" fill="black"/>
<path opacity="0.2" d="M42.8607 205.744C51.7608 208.999 60.7169 206.876 60.7169 206.876C60.7169 206.876 55.2429 199.476 46.3428 196.222C37.4426 192.967 28.4866 195.09 28.4866 195.09C28.4866 195.09 33.9605 202.49 42.8607 205.744Z" fill="black"/>
<path d="M124.743 152.681C151.657 152.681 173.475 130.863 173.475 103.949C173.475 77.0356 151.657 55.2177 124.743 55.2177C97.8297 55.2177 76.0118 77.0356 76.0118 103.949C76.0118 130.863 97.8297 152.681 124.743 152.681Z" fill="#9B7B7B"/>
<path d="M105.708 141.259C105.708 141.259 111.799 170.194 111.799 173.239C111.799 176.285 140.733 189.991 140.733 189.991L166.622 185.422L175.759 158.011C175.759 158.011 160.531 135.168 160.531 126.031L105.708 141.259Z" fill="#9B7B7B"/>
<path d="M239.933 174.223L239.519 175.177C228.247 200.821 208.702 221.943 184.009 235.168C159.316 248.392 130.902 252.954 103.31 248.125C102.559 247.992 101.81 247.854 101.061 247.711C93.3296 246.212 85.7583 243.979 78.4504 241.043C77.2633 240.566 76.0848 240.071 74.9149 239.56C74.1161 239.212 73.3173 238.853 72.5258 238.484C65.3523 235.16 58.5107 231.163 52.0932 226.546L46.3165 209.789L49.5636 207.311L56.2426 202.212L63.369 196.771L65.2219 195.355L93.1841 174.009L95.2477 172.433L109.782 161.339L109.785 161.335C109.785 161.335 125.503 186.945 148.347 179.331C171.191 171.716 170.692 149.882 170.692 149.882L239.933 174.223Z" fill="#2F2E41"/>
<path d="M82.4835 64.6878C82.4835 64.6878 97.9556 31.165 127.61 38.901C157.265 46.6371 174.027 58.2411 175.316 69.8452C176.605 81.4493 174.671 98.8554 174.671 98.8554C174.671 98.8554 171.448 75.0026 150.819 80.1599C130.189 85.3173 97.9556 81.4493 97.9556 81.4493L92.7982 127.866C92.7982 127.866 86.9962 119.485 80.5495 124.642C74.1028 129.8 61.8541 75.0026 82.4835 64.6878Z" fill="#2F2E41"/>
<path d="M78.4504 241.043C77.2633 240.566 76.0848 240.071 74.9149 239.56C74.1161 239.212 73.3173 238.854 72.5259 238.484C60.6616 232.982 49.7318 225.657 40.1331 216.775C43.5318 212.145 46.3165 209.789 46.3165 209.789H69.1605L72.585 221.305L78.4504 241.043Z" fill="#2F2E41"/>
<path d="M219.922 171.716L239.519 175.178C234.275 187.125 227.192 198.177 218.528 207.933L219.922 171.716Z" fill="#2F2E41"/>
</g>
<defs>
<clipPath id="clip0">
<rect width="250" height="250" fill="white"/>
</clipPath>
</defs>
</svg>
